# xmcd
#
# Track frame offsets:
#	150
#	21787
#	41262
#	57625
#	75112
#	94812
#	117862
#	137975
#	159437
#	180912
#	199212
#	220462
#
# Disc length: 3146 seconds
#
# Revision: 0
# Processed by: cddbd v1.5.1PL0 Copyright (c) Steve Scherf et al.
# Submitted via: audiograbber 1.83.01
#
DISCID=9b0c480c
DTITLE=刘德华 - 相思成灾
DYEAR=1900
DGENRE=
TTITLE0=相思成灾
TTITLE1=同名男子
TTITLE2=若我是他我一定娶你
TTITLE3=心里有歌
TTITLE4=没有输
TTITLE5=你会看见我的爱
TTITLE6=每次醒来
TTITLE7=如果天有情
TTITLE8=关心
TTITLE9=心如止水
TTITLE10=多情
TTITLE11=叫世界喝彩
EXTD=
EXTT0=
EXTT1=
EXTT2=
EXTT3=
EXTT4=
EXTT5=
EXTT6=
EXTT7=
EXTT8=
EXTT9=
EXTT10=
EXTT11=
PLAYORDER=
